<svg width="34" height="34" viewBox="0 0 34 34" fill="none" xmlns="http://www.w3.org/2000/svg">
<rect width="34" height="34" rx="7" fill="#4267B2"/>
<path d="M20.4024 26V19.0344H22.7347L23.0838 16.3265H20.4024V14.5976C20.4024 13.8136 20.62 13.2793 21.7443 13.2793L23.1783 13.2787V10.8568C22.9302 10.8238 22.0791 10.7501 21.0888 10.7501C19.0213 10.7501 17.606 12.012 17.606 14.3295V16.3265H15.2677V19.0344H17.606V26H9C8.44772 26 8 25.5523 8 25V9C8 8.44772 8.44772 8 9 8H25C25.5523 8 26 8.44772 26 9V25C26 25.5523 25.5523 26 25 26H20.4024Z" fill="white"/>
</svg>
