<svg width="36" height="36" viewBox="0 0 36 36" fill="none" xmlns="http://www.w3.org/2000/svg">
<path d="M18.0059 0C10.491 0 8.29324 0.00775239 7.86603 0.0431919C6.32386 0.171383 5.36422 0.414199 4.31876 0.934717C3.51306 1.3348 2.87764 1.79855 2.25053 2.44865C1.10844 3.63421 0.41626 5.09277 0.165692 6.82653C0.0438687 7.66822 0.00842918 7.83988 0.00123054 12.1391C-0.00153817 13.5722 0.00123054 15.4583 0.00123054 17.988C0.00123054 25.4968 0.00953667 27.6924 0.0455299 28.1187C0.170122 29.6194 0.405462 30.5635 0.90383 31.5962C1.85627 33.5731 3.67531 35.0571 5.81829 35.6109C6.56031 35.8019 7.37984 35.9071 8.43195 35.957C8.87772 35.9763 13.4212 35.9902 17.9674 35.9902C22.5136 35.9902 27.0598 35.9847 27.4945 35.9625C28.7128 35.9052 29.4202 35.8102 30.2023 35.6081C31.2649 35.3356 32.2552 34.8344 33.104 34.1396C33.9528 33.4448 34.6398 32.573 35.1168 31.5852C35.6055 30.5774 35.8533 29.5972 35.9654 28.1749C35.9898 27.8649 36 22.9208 36 17.9833C36 13.0451 35.9889 8.11011 35.9646 7.80001C35.851 6.35474 35.6032 5.38293 35.0988 4.35574C34.6849 3.51488 34.2253 2.88693 33.558 2.24487C32.3675 1.10748 30.9111 0.415307 29.1754 0.165015C28.3345 0.0434688 28.167 0.00747552 23.8645 0H18.0059Z" fill="url(#paint0_radial_214_1642)"/>
<path d="M18.0059 0C10.491 0 8.29324 0.00775239 7.86603 0.0431919C6.32386 0.171383 5.36422 0.414199 4.31876 0.934717C3.51306 1.3348 2.87764 1.79855 2.25053 2.44865C1.10844 3.63421 0.41626 5.09277 0.165692 6.82653C0.0438687 7.66822 0.00842918 7.83988 0.00123054 12.1391C-0.00153817 13.5722 0.00123054 15.4583 0.00123054 17.988C0.00123054 25.4968 0.00953667 27.6924 0.0455299 28.1187C0.170122 29.6194 0.405462 30.5635 0.90383 31.5962C1.85627 33.5731 3.67531 35.0571 5.81829 35.6109C6.56031 35.8019 7.37984 35.9071 8.43195 35.957C8.87772 35.9763 13.4212 35.9902 17.9674 35.9902C22.5136 35.9902 27.0598 35.9847 27.4945 35.9625C28.7128 35.9052 29.4202 35.8102 30.2023 35.6081C31.2649 35.3356 32.2552 34.8344 33.104 34.1396C33.9528 33.4448 34.6398 32.573 35.1168 31.5852C35.6055 30.5774 35.8533 29.5972 35.9654 28.1749C35.9898 27.8649 36 22.9208 36 17.9833C36 13.0451 35.9889 8.11011 35.9646 7.80001C35.851 6.35474 35.6032 5.38293 35.0988 4.35574C34.6849 3.51488 34.2253 2.88693 33.558 2.24487C32.3675 1.10748 30.9111 0.415307 29.1754 0.165015C28.3345 0.0434688 28.167 0.00747552 23.8645 0H18.0059Z" fill="url(#paint1_radial_214_1642)"/>
<path d="M17.9977 4.70681C14.3884 4.70681 13.9354 4.72259 12.5178 4.7871C11.103 4.85189 10.1373 5.07588 9.29229 5.40452C8.41821 5.74397 7.67675 6.19804 6.93806 6.937C6.19881 7.6757 5.74474 8.41716 5.40419 9.29096C5.07472 10.1362 4.85045 11.1023 4.78677 12.5165C4.72364 13.9341 4.70703 14.3873 4.70703 17.9966C4.70703 21.6059 4.72309 22.0575 4.78732 23.4751C4.85239 24.8899 5.07638 25.8556 5.40475 26.7006C5.74447 27.5747 6.19854 28.3162 6.9375 29.0548C7.67592 29.7941 8.41738 30.2493 9.29091 30.5887C10.1365 30.9174 11.1025 31.1413 12.517 31.2061C13.9346 31.2706 14.3873 31.2864 17.9963 31.2864C21.6059 31.2864 22.0574 31.2706 23.475 31.2061C24.8898 31.1413 25.8567 30.9174 26.7022 30.5887C27.576 30.2493 28.3164 29.7941 29.0548 29.0548C29.794 28.3162 30.2481 27.5747 30.5887 26.7009C30.9154 25.8556 31.1396 24.8896 31.2061 23.4753C31.2698 22.0578 31.2864 21.6059 31.2864 17.9966C31.2864 14.3873 31.2698 13.9344 31.2061 12.5168C31.1396 11.102 30.9154 10.1362 30.5887 9.29124C30.2481 8.41716 29.794 7.6757 29.0548 6.937C28.3155 6.19776 27.5763 5.74369 26.7014 5.40452C25.8542 5.07588 24.8879 4.85189 23.4731 4.7871C22.0555 4.72259 21.6042 4.70681 17.9938 4.70681H17.9977ZM16.8055 7.10174C17.1593 7.10119 17.5541 7.10174 17.9977 7.10174C21.546 7.10174 21.9666 7.11448 23.3679 7.17816C24.6636 7.23741 25.3669 7.45392 25.8353 7.63583C26.4555 7.8767 26.8977 8.16465 27.3626 8.62979C27.8277 9.09494 28.1156 9.53793 28.3571 10.1581C28.539 10.626 28.7558 11.3293 28.8147 12.625C28.8784 14.026 28.8923 14.4469 28.8923 17.9936C28.8923 21.5403 28.8784 21.9611 28.8147 23.3621C28.7555 24.6579 28.539 25.3611 28.3571 25.829C28.1162 26.4492 27.8277 26.8908 27.3626 27.3557C26.8974 27.8208 26.4558 28.1088 25.8353 28.3497C25.3674 28.5324 24.6636 28.7483 23.3679 28.8076C21.9669 28.8713 21.546 28.8851 17.9977 28.8851C14.449 28.8851 14.0284 28.8713 12.6275 28.8076C11.3317 28.7478 10.6285 28.5313 10.1597 28.3494C9.53954 28.1085 9.09654 27.8206 8.6314 27.3554C8.16626 26.8903 7.87831 26.4484 7.63688 25.8279C7.45498 25.36 7.23819 24.6567 7.17921 23.361C7.11553 21.96 7.1028 21.5392 7.1028 17.9902C7.1028 14.4413 7.11553 14.0227 7.17921 12.6217C7.23846 11.326 7.45498 10.6227 7.63688 10.1542C7.87776 9.53405 8.16626 9.09106 8.6314 8.62592C9.09654 8.16077 9.53954 7.87283 10.1597 7.6314C10.6282 7.44866 11.3317 7.2327 12.6275 7.17318C13.8535 7.1178 14.3286 7.10119 16.8055 7.09842V7.10174ZM25.0917 9.3084C24.7762 9.3084 24.4679 9.40195 24.2056 9.57721C23.9433 9.75247 23.7389 10.0016 23.6182 10.293C23.4975 10.5845 23.466 10.9051 23.5276 11.2145C23.5891 11.5239 23.7411 11.808 23.9642 12.0311C24.1873 12.2541 24.4715 12.4059 24.7809 12.4674C25.0903 12.5289 25.4109 12.4972 25.7023 12.3764C25.9937 12.2556 26.2428 12.0511 26.4179 11.7888C26.5931 11.5265 26.6865 11.2181 26.6864 10.9026C26.6864 10.0222 25.9721 9.30785 25.0917 9.30785V9.3084ZM17.9977 11.1717C14.2286 11.1717 11.1728 14.2276 11.1728 17.9966C11.1728 21.7657 14.2286 24.8201 17.9977 24.8201C21.7667 24.8201 24.8217 21.7657 24.8217 17.9966C24.8217 14.2276 21.7667 11.1717 17.9977 11.1717ZM17.9977 13.5667C20.4441 13.5667 22.4276 15.5499 22.4276 17.9966C22.4276 20.443 20.4441 22.4266 17.9977 22.4266C15.551 22.4266 13.5677 20.443 13.5677 17.9966C13.5677 15.5499 15.551 13.5667 17.9977 13.5667Z" fill="white"/>
<defs>
<radialGradient id="paint0_radial_214_1642" cx="0" cy="0" r="1" gradientUnits="userSpaceOnUse" gradientTransform="translate(9.56255 38.7622) rotate(-90) scale(35.6689 33.184)">
<stop stop-color="#FFDD55"/>
<stop offset="0.1" stop-color="#FFDD55"/>
<stop offset="0.5" stop-color="#FF543E"/>
<stop offset="1" stop-color="#C837AB"/>
</radialGradient>
<radialGradient id="paint1_radial_214_1642" cx="0" cy="0" r="1" gradientUnits="userSpaceOnUse" gradientTransform="translate(-6.03019 2.59267) rotate(78.6776) scale(15.9443 65.7397)">
<stop stop-color="#3771C8"/>
<stop offset="0.128" stop-color="#3771C8"/>
<stop offset="1" stop-color="#6600FF" stop-opacity="0"/>
</radialGradient>
</defs>
</svg>
