<svg width="96" height="47" viewBox="0 0 96 47" fill="none" xmlns="http://www.w3.org/2000/svg">
<g clip-path="url(#clip0_214_1648)">
<path d="M14.9837 16.8634C15.1243 17.0214 15.2704 17.1751 15.4028 17.3396C15.4682 17.4206 15.5175 17.5178 15.5584 17.6147C15.6064 17.7282 15.6224 17.8662 15.4985 17.9278C15.4202 17.9665 15.2898 17.9584 15.207 17.9193C14.9309 17.7894 14.6719 17.6235 14.3961 17.4936C12.3336 16.5234 10.2457 16.3783 8.11545 17.2839C7.5132 17.5399 6.96099 17.8618 6.46938 18.2895C6.36384 18.3813 6.27566 18.4928 6.17693 18.5924C5.99887 18.7719 5.81299 18.8167 5.63629 18.7267C5.46198 18.6376 5.39662 18.4605 5.42555 18.2126C5.5025 17.5521 5.73264 16.9599 6.19872 16.4745C6.32775 16.3398 6.46563 16.2079 6.61883 16.1032C8.76912 14.6285 11.0124 14.5344 13.325 15.6831C13.9361 15.987 14.5105 16.3572 14.9837 16.8634Z" fill="#F95C65"/>
<path d="M52.115 10.1503C52.402 10.2652 52.6754 10.3689 52.9443 10.4835C53.9031 10.8921 54.8968 11.1766 55.9315 11.299C56.3026 11.3429 56.6822 11.3259 57.0577 11.3177C57.2899 11.313 57.5197 11.2956 57.6313 11.5502C57.7277 11.7705 57.633 11.948 57.4897 12.1282C57.2875 12.3824 57.0216 12.5334 56.7251 12.6048C55.3694 12.9308 54.0981 12.7472 52.9964 11.8531C52.5447 11.4863 52.2365 10.99 52.1028 10.407C52.0922 10.3614 52.0847 10.3145 52.0816 10.2679C52.0803 10.2465 52.0929 10.2244 52.115 10.1503Z" fill="#F95C65"/>
<path d="M49.0712 11.3677C49.0712 18.1902 42.8668 24.0452 36.3751 24.0452C34.725 24.0452 33.0748 23.6471 31.5383 22.7908C30.5115 22.166 31.0263 20.1803 32.2778 20.5182C36.832 23.0777 42.2391 15.1769 42.1832 10.6273C42.1253 7.78527 40.816 5.73943 38.8805 4.48976C31.3089 13.4135 25.1045 40.416 10.589 40.416C5.6365 40.416 0 35.6947 0 29.5018C0 23.3041 5.46492 18.588 11.5001 18.5278C12.3529 18.5278 16.7934 18.8705 16.7934 21.9991C13.776 21.9991 12.5245 23.8181 12.5245 25.5213C12.5245 27.0579 13.7205 28.5343 15.5419 28.5343C22.145 28.4187 28.4072 10.6266 35.3507 3.23975C34.8387 3.17958 34.3263 3.12417 33.7584 3.12417C28.4627 3.12417 22.5991 6.30851 22.5991 13.0151C13.491 13.5291 9.96125 0 31.7075 0C34.2708 0 36.5467 0.226749 38.5401 0.680246C39.3374 0.282161 40.1347 0.0554124 40.9876 0.0554124C42.0699 0.0554124 43.0943 0.453498 43.6066 1.64775C43.1501 1.64775 42.6377 1.75892 42.1836 1.8745C46.9645 4.03592 49.0712 7.6741 49.0712 11.3677Z" fill="#F95C65"/>
<path d="M70.9006 24.8411C66.8587 31.5477 62.4737 37.8565 59.2868 38.2543C56.6677 38.3097 55.0178 36.4352 55.0178 33.9916V33.7648C52.5125 36.7177 49.9516 38.6527 48.4706 38.6527C45.6827 38.6527 43.6893 37.0603 43.6893 32.969C43.6315 25.3506 50.3503 15.404 55.9289 15.4594C57.6369 15.5148 59.2292 17.0517 60.5965 19.7822C60.9373 18.9259 61.1085 18.2456 61.1085 17.7921C62.7587 16.8246 67.4845 16.8246 67.4845 18.7596C67.4845 20.2918 59.9707 31.4324 62.9861 30.6362C64.1821 30.3537 66.4022 27.9102 68.7942 24.6701C69.0788 24.2162 70.3885 24.1006 70.9006 24.8411ZM58.8306 22.2261C58.8306 21.6567 58.3764 21.0876 57.8061 21.0876C54.3342 21.0876 50.6911 27.0582 50.5195 30.2382C50.464 31.4926 51.0315 32.1728 51.6596 32.1728C53.9934 32.1725 58.8306 25.179 58.8306 22.2261Z" fill="#F95C65"/>
<path d="M94.3088 24.8411C90.2669 31.5477 85.8843 37.8565 82.6953 38.2546C80.0786 38.31 78.4261 36.4355 78.4261 33.9919C78.4261 31.2057 85.3141 20.1806 82.5816 20.1806C78.2569 20.1806 72.8474 28.0213 71.9946 38.2549C69.83 38.2549 66.0731 36.2091 66.3581 31.8305C66.5852 27.7388 71.6514 20.0647 71.6514 15.802C74.4418 15.802 76.8893 16.4823 76.8893 17.732C76.8893 19.0972 76.4351 20.3472 75.807 21.7679C78.1986 18.0189 81.4435 15.288 84.8596 15.288C88.1044 15.288 89.3559 17.2781 89.3559 19.6666C89.3559 23.8185 85.9398 28.5347 85.884 30.3537C85.884 30.5805 85.9395 30.6964 86.1689 30.6964C87.7054 30.6964 91.4044 25.8042 92.2017 24.6701C92.4874 24.2162 93.7967 24.1006 94.3088 24.8411Z" fill="#F95C65"/>
<path d="M41.9891 41.817C40.0789 38.9284 36.609 37.4754 33.1943 37.4618C29.3537 37.4465 26.119 39.2065 22.7666 40.8066C22.1613 41.0956 21.5441 41.3594 20.9418 41.6541C20.044 42.094 19.1575 42.5574 18.2607 42.9993C14.8719 44.6699 11.544 46.4658 7.7003 46.7609C6.86041 46.8255 6.00418 46.8282 5.18846 46.6168C4.05646 46.3234 2.95238 45.5915 2.86011 44.3398C2.80836 43.6378 3.09128 43.0343 3.4845 42.4768C3.64962 42.2429 3.77695 42.211 4.02377 42.365C4.61071 42.7311 5.25484 42.9524 5.9177 43.118C7.04051 43.3981 8.18374 43.5552 9.3423 43.5368C10.0702 43.5252 10.7984 43.4749 11.5236 43.411C11.8606 43.3814 12.2 43.3056 12.5231 43.203C13.4308 42.915 14.3374 42.6203 15.2311 42.2922C15.7707 42.094 16.2858 41.8285 16.8114 41.5933C18.0779 41.0266 19.3458 40.4636 20.6099 39.8918C22.0139 39.2568 23.4067 38.5966 24.8185 37.9796C26.1323 37.4054 27.4648 36.873 28.7895 36.3237C31.22 35.3161 33.8551 34.424 36.5089 34.3278C39.3946 34.2234 42.9696 35.3881 43.7197 38.5266C43.9941 39.6746 43.7489 40.6938 42.8004 41.4801C42.5771 41.6664 42.3327 41.7928 41.9891 41.817Z" fill="#F95C65"/>
<path d="M90.8436 46.1755C90.177 43.77 88.1309 42.0233 85.8056 41.2832C83.1903 40.451 80.597 40.9753 77.9585 41.3638C77.4822 41.4338 77.0032 41.4842 76.5276 41.5593C75.8185 41.6711 75.1124 41.8017 74.4032 41.9156C71.7245 42.3453 69.0602 42.8742 66.374 42.2559C65.7871 42.1206 65.2025 41.9394 64.6932 41.6188C63.9858 41.1738 63.3944 40.4317 63.6068 39.5468C63.726 39.0504 64.0518 38.6938 64.443 38.3926C64.6071 38.2662 64.701 38.2716 64.8355 38.4307C65.1552 38.8094 65.5457 39.1001 65.9611 39.3564C66.6651 39.7905 67.41 40.1434 68.2039 40.3786C68.7027 40.5265 69.2103 40.6475 69.719 40.7584C69.9552 40.81 70.2034 40.8301 70.4465 40.8284C71.1288 40.8236 71.8117 40.8138 72.4936 40.7784C72.9052 40.757 73.3148 40.6836 73.7254 40.6336C74.7137 40.5129 75.7024 40.3949 76.69 40.2702C77.7873 40.1318 78.8822 39.9734 79.9808 39.849C81.0032 39.7334 82.0286 39.6505 83.053 39.5542C84.9323 39.3778 86.9253 39.3251 88.7559 39.8265C90.7466 40.3718 92.9278 41.9421 92.7484 44.2718C92.6827 45.124 92.2912 45.7761 91.4714 46.1167C91.2777 46.1973 91.0829 46.2323 90.8436 46.1755Z" fill="#F95C65"/>
<path d="M92.9585 19.6333C92.0311 16.091 88.9517 13.1932 85.4001 11.6621C81.4056 9.93989 77.39 10.1418 73.31 10.1425C72.5733 10.1425 71.8335 10.1139 71.0978 10.1211C70.0009 10.1316 68.9077 10.1697 67.8111 10.183C63.6675 10.2333 59.5412 10.4274 55.4296 8.99312C54.5311 8.67969 53.6385 8.30166 52.8667 7.74175C51.7953 6.96462 50.9148 5.79178 51.2788 4.58393C51.4831 3.9064 51.9995 3.4699 52.614 3.12519C52.8718 2.98071 53.0165 3.00756 53.217 3.26083C53.6939 3.86323 54.2829 4.35582 54.9124 4.8049C55.9791 5.56571 57.1117 6.22012 58.3248 6.71849C59.087 7.03125 59.8639 7.30831 60.6429 7.57144C61.0048 7.69382 61.3861 7.77405 61.7606 7.82198C62.8119 7.95694 63.8642 8.08579 64.9159 8.17723C65.5508 8.23265 66.1847 8.21395 66.819 8.22857C68.3463 8.26324 69.8739 8.30268 71.4005 8.33157C73.0962 8.36421 74.7893 8.36795 76.4868 8.42064C78.0665 8.46959 79.6496 8.56614 81.2313 8.64331C84.133 8.78473 87.2055 9.12536 90.0047 10.2159C93.0487 11.402 96.3436 14.0778 95.9708 17.3366C95.8343 18.5288 95.2044 19.3699 93.9274 19.6813C93.6261 19.7543 93.3251 19.7635 92.9585 19.6333Z" fill="#F95C65"/>
</g>
<defs>
<clipPath id="clip0_214_1648">
<rect width="96" height="46.8" fill="white"/>
</clipPath>
</defs>
</svg>
