<svg width="34" height="34" viewBox="0 0 34 34" fill="none" xmlns="http://www.w3.org/2000/svg">
<rect width="34" height="34" rx="7" fill="#FF0A00"/>
<path d="M17.2439 9C17.778 9.00294 19.1143 9.01586 20.5341 9.07273L21.0375 9.09468C22.467 9.16236 23.8953 9.27798 24.6037 9.4755C25.5486 9.74095 26.2913 10.5155 26.5423 11.4973C26.942 13.0564 26.992 16.0994 26.9982 16.8358L26.9991 16.9884V16.9991C26.9991 16.9991 26.9991 17.0028 26.9991 17.0099L26.9982 17.1625C26.992 17.8989 26.942 20.9419 26.5423 22.501C26.2878 23.4864 25.5451 24.261 24.6037 24.5228C23.8953 24.7203 22.467 24.8359 21.0375 24.9036L20.5341 24.9255C19.1143 24.9824 17.778 24.9953 17.2439 24.9983L17.0095 24.9991H16.9991C16.9991 24.9991 16.9956 24.9991 16.9887 24.9991L16.7545 24.9983C15.6241 24.9921 10.8977 24.941 9.39451 24.5228C8.4496 24.2573 7.70692 23.4828 7.45587 22.501C7.0562 20.9419 7.00624 17.8989 7 17.1625V16.8358C7.00624 16.0994 7.0562 13.0564 7.45587 11.4973C7.7104 10.5119 8.45308 9.73732 9.39451 9.4755C10.8977 9.05723 15.6241 9.00622 16.7545 9H17.2439ZM14.9991 13.4991V20.4991L20.9991 16.9991L14.9991 13.4991Z" fill="white"/>
</svg>
